# xmcd
# 
# Track frame offsets:
#     150
#     25608
#     45938
#     74010
#     101959
#     114703
#     145712
#     169860
# 
# Disc length: 2673
# 
# Revision: 0
# Processed by: cddbd v1.5.2PL0 Copyright (c) Steve Scherf et al.
# Submitted via: fre:ac v1.0.17
# 
DISCID=6b0a6f08
DTITLE=Jeff Beck - Live In Tokyo 1999
DYEAR=1999
DGENRE=Rock
TTITLE0=The Pump
TTITLE1=Cause We've Ended As Lovers
TTITLE2=Space For The Papa
TTITLE3=Angle
TTITLE4=Even Odds
TTITLE5=You Never Know
TTITLE6=Blue Wind
TTITLE7=Big Block
EXTD=
EXTT0=
EXTT1=
EXTT2=
EXTT3=
EXTT4=
EXTT5=
EXTT6=
EXTT7=
PLAYORDER=
